<svg id="block-solid" xmlns="http://www.w3.org/2000/svg" xmlns:xlink="http://www.w3.org/1999/xlink" width="36" height="36" viewBox="0 0 36 36">
  <defs>
    <clipPath id="clip-path">
      <path id="Mask" d="M13.58,30.912l-13-6A1,1,0,0,1,0,24V7a1,1,0,0,1,.58-.911l13-6a1,1,0,0,1,.84,0l13,6A1,1,0,0,1,28,7V24a1,1,0,0,1-.58.911l-13,6a1,1,0,0,1-.84,0Z" transform="translate(0 0.998)"/>
    </clipPath>
  </defs>
  <g id="color" transform="translate(4 2)">
    <path id="Mask-2" data-name="Mask" d="M13.58,30.912l-13-6A1,1,0,0,1,0,24V7a1,1,0,0,1,.58-.911l13-6a1,1,0,0,1,.84,0l13,6A1,1,0,0,1,28,7V24a1,1,0,0,1-.58.911l-13,6a1,1,0,0,1-.84,0Z" transform="translate(0 0.998)"/>
    <g id="color-2" data-name="color" clip-path="url(#clip-path)">
      <g id="color-3" data-name="color" transform="translate(-4 -2)">
        <rect id="Rectangle" width="36" height="36" fill="#737373"/>
      </g>
    </g>
  </g>
</svg>
