<svg xmlns="http://www.w3.org/2000/svg" xmlns:xlink="http://www.w3.org/1999/xlink" width="1620.973" height="1316.28" viewBox="0 0 1620.973 1316.28">
  <defs>
    <linearGradient id="linear-gradient" x1="0.5" x2="0.5" y2="1" gradientUnits="objectBoundingBox">
      <stop offset="0" stop-color="#5c3aed"/>
      <stop offset="1" stop-color="#61f1a4"/>
    </linearGradient>
  </defs>
  <path id="Path_8" data-name="Path 8" d="M-359.874,3253.086s1548.747-72.879,1578.333,0c17.959,44.238,47.864,127.813-66.568,175.766-74.234,31.107-184.912,30.008-510.358,25.721-369.825-21.435-251.481,210.059-147.93,214.346,181.214,25.722,377.221-53.586,491.867,0s147.93,167.19-33.284,214.346c-340.239,4.287-274,11.617-519.6,27.434-156.808,10.1-168.671,52.029-183.063,84.026,29.586,210.059,207.448,158.344,663.835,138.894,192.232-8.192,224.151,22.013,264.989,78.587,43.826,100.45,45.818,250.547-186.261,263.247-297.818,16.164-818.344,24.877-1351.955,32.682-3.214-.241-1.611-159.466,0-170.457.02-.133,2.26-73.407,1.568-135.063-1.529-136.3-6.274-331.643-1.568-387.941C-357.576,3787.182-359.874,3253.086-359.874,3253.086Z" transform="matrix(-1, -0.017, 0.017, -1, 1179.939, 4529.525)" stroke="#707070" stroke-width="1" opacity="0.4" fill="url(#linear-gradient)"/>
</svg>
