<svg xmlns="http://www.w3.org/2000/svg" xmlns:xlink="http://www.w3.org/1999/xlink" width="1499.651" height="1042.893" viewBox="0 0 1499.651 1042.893">
  <defs>
    <linearGradient id="linear-gradient" x1="0.5" x2="0.5" y2="1" gradientUnits="objectBoundingBox">
      <stop offset="0" stop-color="#5c3aed"/>
      <stop offset="1" stop-color="#61f1a4"/>
    </linearGradient>
  </defs>
  <path id="Path_2" data-name="Path 2" d="M-360,3246.905s1452.709-58.973,1480.46,0c16.845,35.8,44.9,103.425-62.441,142.227-69.631,25.172-173.446,24.282-478.711,20.813-346.892-17.344-235.886,169.977-138.757,173.446,169.977,20.813,353.83-43.362,461.366,0s138.757,135.288-31.22,173.446c-319.14,3.469-257.014,9.4-487.383,22.2-147.085,8.171-158.211,42.1-171.711,67.993,27.751,169.977,194.584,128.13,622.67,112.391,180.311-6.629,210.252,17.812,248.557,63.592,41.108,81.282,42.977,202.739-174.711,213.016-279.35,13.08-767.6,20.13-1268.121,26.446-3.015-.195-1.511-129.038,0-137.932.018-.108,2.119-59.4,1.471-109.292-1.434-110.293-5.885-268.361-1.471-313.917C-357.845,3679.089-360,3246.905-360,3246.905Z" transform="translate(362.401 -3220.082)" stroke="#707070" stroke-width="1" opacity="0.1" fill="url(#linear-gradient)"/>
</svg>
