<svg id="replay-all-line" xmlns="http://www.w3.org/2000/svg" xmlns:xlink="http://www.w3.org/1999/xlink" width="36" height="36" viewBox="0 0 36 36">
  <defs>
    <clipPath id="clip-path">
      <path id="Mask" d="M.044,24.7a1,1,0,0,1,1.71-.95A11.78,11.78,0,1,0,12.1,6.341H5.5l2.82,2.51a1,1,0,1,1-1.34,1.49l-5.62-5L6.984.221A1,1,0,0,1,8.324,1.7L5.4,4.341h6.7A13.781,13.781,0,1,1,.044,24.7Zm10.9.75a1.41,1.41,0,0,1-.88-1.32V13.02a1.43,1.43,0,0,1,2.44-1l5.59,5.56a1.456,1.456,0,0,1,.42,1,1.43,1.43,0,0,1-.42,1l-5.59,5.56a1.4,1.4,0,0,1-1,.419A1.531,1.531,0,0,1,10.944,25.45Z" transform="translate(0.956 0.66)" fill="#fff"/>
    </clipPath>
  </defs>
  <g id="color" transform="translate(5 2)">
    <path id="Mask-2" data-name="Mask" d="M.044,24.7a1,1,0,0,1,1.71-.95A11.78,11.78,0,1,0,12.1,6.341H5.5l2.82,2.51a1,1,0,1,1-1.34,1.49l-5.62-5L6.984.221A1,1,0,0,1,8.324,1.7L5.4,4.341h6.7A13.781,13.781,0,1,1,.044,24.7Zm10.9.75a1.41,1.41,0,0,1-.88-1.32V13.02a1.43,1.43,0,0,1,2.44-1l5.59,5.56a1.456,1.456,0,0,1,.42,1,1.43,1.43,0,0,1-.42,1l-5.59,5.56a1.4,1.4,0,0,1-1,.419A1.531,1.531,0,0,1,10.944,25.45Z" transform="translate(0.956 0.66)" fill="#fff"/>
    <g id="color-2" data-name="color" clip-path="url(#clip-path)">
      <g id="color-3" data-name="color" transform="translate(-5 -2)">
        <rect id="Rectangle" width="36" height="36" fill="#fff"/>
      </g>
    </g>
  </g>
</svg>
