<svg id="sun-line" xmlns="http://www.w3.org/2000/svg" xmlns:xlink="http://www.w3.org/1999/xlink" width="36" height="36" viewBox="0 0 36 36">
  <defs>
    <clipPath id="clip-path">
      <path id="Mask" d="M16.09,33.18v-3.4a1,1,0,0,1,2,0v3.4a1,1,0,1,1-2,0ZM27.76,29.17l-2.409-2.4A1,1,0,1,1,26.77,25.35l2.4,2.409a1,1,0,1,1-1.41,1.41ZM4.789,28.849A1,1,0,0,1,5.01,27.76l2.4-2.409A1,1,0,1,1,8.83,26.77l-2.41,2.4a.992.992,0,0,1-1.631-.321Zm5.092-4.763A10.126,10.126,0,1,1,17.092,27.1,10.129,10.129,0,0,1,9.881,24.086Zm19.9-6a1,1,0,0,1,0-2h3.4a1,1,0,1,1,0,2ZM1,18.09a1,1,0,1,1,0-2H4.4a1,1,0,1,1,0,2ZM25.38,8.8a1,1,0,0,1,0-1.42l2.41-2.4A1,1,0,1,1,29.2,6.39L26.8,8.8a1,1,0,0,1-.7.29h-.014A1,1,0,0,1,25.38,8.8ZM8.09,9.09H8.083a1,1,0,0,1-.673-.26L5.01,6.42A1,1,0,0,1,6.42,5.01L8.8,7.38a1,1,0,0,1-.7,1.71Zm8-4.69V1a1,1,0,1,1,2,0V4.4a1,1,0,1,1-2,0Z" transform="translate(0.91 0.91)"/>
    </clipPath>
  </defs>
  <g id="color">
    <path id="Mask-2" data-name="Mask" d="M16.09,33.18v-3.4a1,1,0,0,1,2,0v3.4a1,1,0,1,1-2,0ZM27.76,29.17l-2.409-2.4A1,1,0,1,1,26.77,25.35l2.4,2.409a1,1,0,1,1-1.41,1.41ZM4.789,28.849A1,1,0,0,1,5.01,27.76l2.4-2.409A1,1,0,1,1,8.83,26.77l-2.41,2.4a.992.992,0,0,1-1.631-.321Zm5.092-4.763A10.126,10.126,0,1,1,17.092,27.1,10.129,10.129,0,0,1,9.881,24.086Zm19.9-6a1,1,0,0,1,0-2h3.4a1,1,0,1,1,0,2ZM1,18.09a1,1,0,1,1,0-2H4.4a1,1,0,1,1,0,2ZM25.38,8.8a1,1,0,0,1,0-1.42l2.41-2.4A1,1,0,1,1,29.2,6.39L26.8,8.8a1,1,0,0,1-.7.29h-.014A1,1,0,0,1,25.38,8.8ZM8.09,9.09H8.083a1,1,0,0,1-.673-.26L5.01,6.42A1,1,0,0,1,6.42,5.01L8.8,7.38a1,1,0,0,1-.7,1.71Zm8-4.69V1a1,1,0,1,1,2,0V4.4a1,1,0,1,1-2,0Z" transform="translate(0.91 0.91)"/>
    <g id="color-2" data-name="color" clip-path="url(#clip-path)">
      <g id="color-3" data-name="color">
        <rect id="Rectangle" width="36" height="36" fill="#737373"/>
      </g>
    </g>
  </g>
</svg>
