<svg id="thumbs-up-line" xmlns="http://www.w3.org/2000/svg" xmlns:xlink="http://www.w3.org/1999/xlink" width="36" height="36" viewBox="0 0 36 36">
  <defs>
    <clipPath id="clip-path">
      <path id="Mask" d="M6.218,30.083a1.006,1.006,0,0,1-.61-.21c-.1-.08-2.309-1.821-4.2-7.221a28.993,28.993,0,0,1-1.4-9.619,1,1,0,0,1,1-1h8v-8c0-2.4,2.25-3.621,3.59-4a1,1,0,0,1,1.19.61c.021.06,2.43,6.66,4.31,9.17a9.129,9.129,0,0,0,3.91,3v2.13a11.4,11.4,0,0,1-5.511-3.88c-1.609-2.15-3.46-6.72-4.23-8.72a2.05,2.05,0,0,0-1.26,1.69v10h-9a26.738,26.738,0,0,0,1.32,7.92,16.679,16.679,0,0,0,3.31,6.08h6c2.07,0,6.449-2.18,9.37-4v2.42c-2.821,1.63-6.94,3.63-9.37,3.63Zm25.789-1.05h-7a1,1,0,0,1-1-1v-16a1,1,0,0,1,1-1h7v18h0Zm-6-2h4v-14h-4Z" transform="translate(0.992 0.967)"/>
    </clipPath>
  </defs>
  <g id="color" transform="translate(1 2)">
    <path id="Mask-2" data-name="Mask" d="M6.218,30.083a1.006,1.006,0,0,1-.61-.21c-.1-.08-2.309-1.821-4.2-7.221a28.993,28.993,0,0,1-1.4-9.619,1,1,0,0,1,1-1h8v-8c0-2.4,2.25-3.621,3.59-4a1,1,0,0,1,1.19.61c.021.06,2.43,6.66,4.31,9.17a9.129,9.129,0,0,0,3.91,3v2.13a11.4,11.4,0,0,1-5.511-3.88c-1.609-2.15-3.46-6.72-4.23-8.72a2.05,2.05,0,0,0-1.26,1.69v10h-9a26.738,26.738,0,0,0,1.32,7.92,16.679,16.679,0,0,0,3.31,6.08h6c2.07,0,6.449-2.18,9.37-4v2.42c-2.821,1.63-6.94,3.63-9.37,3.63Zm25.789-1.05h-7a1,1,0,0,1-1-1v-16a1,1,0,0,1,1-1h7v18h0Zm-6-2h4v-14h-4Z" transform="translate(0.992 0.967)"/>
    <g id="color-2" data-name="color" clip-path="url(#clip-path)">
      <g id="color-3" data-name="color" transform="translate(-1 -2)">
        <rect id="Rectangle" width="36" height="36" fill="#737373"/>
      </g>
    </g>
  </g>
</svg>
