<svg id="thumbs-up-solid" xmlns="http://www.w3.org/2000/svg" xmlns:xlink="http://www.w3.org/1999/xlink" width="36" height="36" viewBox="0 0 36 36">
  <defs>
    <clipPath id="clip-path">
      <path id="Mask" d="M5.576,30s-2.19-1.73-4.13-7.259A29.49,29.49,0,0,1,.006,13h9.77V3.25C9.777.83,12.657,0,12.657,0s2.63,7.28,4.75,10.12a10.825,10.825,0,0,0,4.369,3.39v12.8c-3,1.75-7.1,3.69-9.34,3.69Zm19.2-1a1,1,0,0,1-1-1V12a1,1,0,0,1,1-1h7V29Z" transform="translate(0.223)"/>
    </clipPath>
  </defs>
  <g id="color" transform="translate(2 2)">
    <path id="Mask-2" data-name="Mask" d="M5.576,30s-2.19-1.73-4.13-7.259A29.49,29.49,0,0,1,.006,13h9.77V3.25C9.777.83,12.657,0,12.657,0s2.63,7.28,4.75,10.12a10.825,10.825,0,0,0,4.369,3.39v12.8c-3,1.75-7.1,3.69-9.34,3.69Zm19.2-1a1,1,0,0,1-1-1V12a1,1,0,0,1,1-1h7V29Z" transform="translate(0.223)"/>
    <g id="color-2" data-name="color" clip-path="url(#clip-path)">
      <g id="color-3" data-name="color" transform="translate(-2 -2)">
        <rect id="Rectangle" width="36" height="36" fill="#737373"/>
      </g>
    </g>
  </g>
</svg>
