<svg id="users-solid" xmlns="http://www.w3.org/2000/svg" xmlns:xlink="http://www.w3.org/1999/xlink" width="36" height="36" viewBox="0 0 36 36">
  <defs>
    <clipPath id="clip-path">
      <path id="Mask" d="M19.38,25.145H7.89A1.57,1.57,0,0,1,6.29,23.6v-6.33l.25-.28a9.69,9.69,0,0,1,7.11-2.7,9.579,9.579,0,0,1,7.089,2.7l.24.3V23.6a1.57,1.57,0,0,1-1.573,1.541Zm3.77-3.92v-4.71l-.54-.62-.25-.28a10.909,10.909,0,0,0-5-3,6.587,6.587,0,0,0,2-2.45,10.758,10.758,0,0,1,1.09-.06,8.673,8.673,0,0,1,6.431,2.52l.21.281v8.32ZM0,21.215v-8.28l.24-.28a8.666,8.666,0,0,1,6.43-2.52h.87a6.585,6.585,0,0,0,2.05,2.61,11,11,0,0,0-4.711,2.86l-.25.29-.55.62v4.7ZM8.94,7.445a4.47,4.47,0,1,1,4.47,4.47A4.471,4.471,0,0,1,8.94,7.445ZM2.624,4.921A4.09,4.09,0,0,1,10.06,1.895a6.451,6.451,0,0,0-3.11,6.29H6.64v.041A4.091,4.091,0,0,1,2.624,4.921ZM20.55,8.175a4.03,4.03,0,0,1-.58-.05,6.775,6.775,0,0,0,0-.689,6.53,6.53,0,0,0-2.96-5.441,4.09,4.09,0,1,1,3.73,6.18Z" transform="translate(0.46 0.005)" fill="#fff"/>
    </clipPath>
  </defs>
  <g id="color" transform="translate(4 6)">
    <path id="Mask-2" data-name="Mask" d="M19.38,25.145H7.89A1.57,1.57,0,0,1,6.29,23.6v-6.33l.25-.28a9.69,9.69,0,0,1,7.11-2.7,9.579,9.579,0,0,1,7.089,2.7l.24.3V23.6a1.57,1.57,0,0,1-1.573,1.541Zm3.77-3.92v-4.71l-.54-.62-.25-.28a10.909,10.909,0,0,0-5-3,6.587,6.587,0,0,0,2-2.45,10.758,10.758,0,0,1,1.09-.06,8.673,8.673,0,0,1,6.431,2.52l.21.281v8.32ZM0,21.215v-8.28l.24-.28a8.666,8.666,0,0,1,6.43-2.52h.87a6.585,6.585,0,0,0,2.05,2.61,11,11,0,0,0-4.711,2.86l-.25.29-.55.62v4.7ZM8.94,7.445a4.47,4.47,0,1,1,4.47,4.47A4.471,4.471,0,0,1,8.94,7.445ZM2.624,4.921A4.09,4.09,0,0,1,10.06,1.895a6.451,6.451,0,0,0-3.11,6.29H6.64v.041A4.091,4.091,0,0,1,2.624,4.921ZM20.55,8.175a4.03,4.03,0,0,1-.58-.05,6.775,6.775,0,0,0,0-.689,6.53,6.53,0,0,0-2.96-5.441,4.09,4.09,0,1,1,3.73,6.18Z" transform="translate(0.46 0.005)" fill="#fff"/>
    <g id="color-2" data-name="color" clip-path="url(#clip-path)">
      <g id="color-3" data-name="color" transform="translate(-4 -6)">
        <rect id="Rectangle" width="36" height="36" fill="#fff"/>
      </g>
    </g>
  </g>
</svg>
