<svg id="users-line" xmlns="http://www.w3.org/2000/svg" xmlns:xlink="http://www.w3.org/1999/xlink" width="36" height="36" viewBox="0 0 36 36">
  <defs>
    <clipPath id="clip-path">
      <path id="Mask" d="M8.7,27.756a1.686,1.686,0,0,1-1.7-1.7v-7.6l.2-.3a10.3,10.3,0,0,1,7.9-3.4,10.09,10.09,0,0,1,7.8,3.4l.2.3h.1v7.6a1.753,1.753,0,0,1-1.7,1.7Zm19.3-7v-7.2a8.32,8.32,0,0,0-5.3-1.6,9.632,9.632,0,0,0-1.7.1,6.657,6.657,0,0,0,.9-2.1h.8a9.9,9.9,0,0,1,7,2.5l.3.3v8Zm-28,0v-8l.3-.3a10.289,10.289,0,0,1,7-2.4h.8a6.677,6.677,0,0,0,.9,2.1,8.815,8.815,0,0,0-1.7-.2,8.5,8.5,0,0,0-5.3,1.6v7.2Zm10-12.6a4.85,4.85,0,1,1,4.9,4.9A4.909,4.909,0,0,1,10,8.156Zm12.1.7v-.6a7.024,7.024,0,0,0-.1-1.4,1.706,1.706,0,0,0,.7.1,2.5,2.5,0,0,0,2.2-1.5,2.442,2.442,0,0,0-4.5-1.9,4.263,4.263,0,0,0-1.4-1.3,4.288,4.288,0,0,1,3.8-2.2,4.45,4.45,0,1,1-.1,8.9C22.5,8.956,22.3,8.856,22.1,8.856ZM3.5,6.756a4.442,4.442,0,1,1,7.6-4.6,9.958,9.958,0,0,0-1.5,1.4,2.528,2.528,0,0,0-2.3-1.5,2.434,2.434,0,0,0-2.4,2.4,2.434,2.434,0,0,0,2.4,2.4,1.7,1.7,0,0,0,.7-.1,6.152,6.152,0,0,0-.1,1.4v.6a1.271,1.271,0,0,1-.6.1A4.406,4.406,0,0,1,3.5,6.756Z" transform="translate(0 0.244)"/>
    </clipPath>
  </defs>
  <g id="color" transform="translate(3 5)">
    <path id="Mask-2" data-name="Mask" d="M8.7,27.756a1.686,1.686,0,0,1-1.7-1.7v-7.6l.2-.3a10.3,10.3,0,0,1,7.9-3.4,10.09,10.09,0,0,1,7.8,3.4l.2.3h.1v7.6a1.753,1.753,0,0,1-1.7,1.7Zm19.3-7v-7.2a8.32,8.32,0,0,0-5.3-1.6,9.632,9.632,0,0,0-1.7.1,6.657,6.657,0,0,0,.9-2.1h.8a9.9,9.9,0,0,1,7,2.5l.3.3v8Zm-28,0v-8l.3-.3a10.289,10.289,0,0,1,7-2.4h.8a6.677,6.677,0,0,0,.9,2.1,8.815,8.815,0,0,0-1.7-.2,8.5,8.5,0,0,0-5.3,1.6v7.2Zm10-12.6a4.85,4.85,0,1,1,4.9,4.9A4.909,4.909,0,0,1,10,8.156Zm12.1.7v-.6a7.024,7.024,0,0,0-.1-1.4,1.706,1.706,0,0,0,.7.1,2.5,2.5,0,0,0,2.2-1.5,2.442,2.442,0,0,0-4.5-1.9,4.263,4.263,0,0,0-1.4-1.3,4.288,4.288,0,0,1,3.8-2.2,4.45,4.45,0,1,1-.1,8.9C22.5,8.956,22.3,8.856,22.1,8.856ZM3.5,6.756a4.442,4.442,0,1,1,7.6-4.6,9.958,9.958,0,0,0-1.5,1.4,2.528,2.528,0,0,0-2.3-1.5,2.434,2.434,0,0,0-2.4,2.4,2.434,2.434,0,0,0,2.4,2.4,1.7,1.7,0,0,0,.7-.1,6.152,6.152,0,0,0-.1,1.4v.6a1.271,1.271,0,0,1-.6.1A4.406,4.406,0,0,1,3.5,6.756Z" transform="translate(0 0.244)"/>
    <g id="color-2" data-name="color" clip-path="url(#clip-path)">
      <g id="color-3" data-name="color" transform="translate(-3 -5)">
        <rect id="Rectangle" width="36" height="36" fill="#737373"/>
      </g>
    </g>
  </g>
</svg>
